<svg xmlns="http://www.w3.org/2000/svg" width="1024" height="1024" viewBox="0 0 1024 1024">
  <g fill-rule="evenodd" transform="translate(512,512) scale(1.1) translate(-512 -512)">
    <path
      d="m492 313-40 9-27 12-33 23-19 19-21 31-13 31-7 33v36l8 37 13 29 21 30 25 24 26 17 37 15 30 6h38l32-6 39-16 25-17 24-23 17-23 16-34 8-35v-44l-10-40-12-25-19-27-29-27-36-21-26-9-39-6Z" />
    <path fill="#fff" d="m497 546 13 64 1 18-5 14-9 9-9 3h-9l-10-3-11-10-6-14v-13l7-19Z" />
    <path fill="#fff"
      d="m470 400 6 24 19 112-40 51-7 13-3 10v18l6 15 4 4-2 1-29-14-24-17-22-22-17-25Zm-5-10 1 2-109 168-11-25-6-32 1-37 10-37 2-3 2 2 2 11 11 13 11 5 19-1 6-3 7-8v-6l-4-4-7 1-7 8-7 3-10-1-9-6-6-12v-15l5-14 7-9Z" />
    <path fill="#fff"
      d="m502 320 69 10 60 37 38 53 15 60-10 67-39 60-50 35-68 16-18-2 14-12 6-16-14-92 105-137-37 158-7 9-18 5 61 2-19-10-1-11 35-153 12-15h-22L504 525l-25-140-101-2 51-42 34-14Z" />
  </g>
</svg>